<?xml version="1.0" standalone="no"?>
<!DOCTYPE svg PUBLIC "-//W3C//DTD SVG 20010904//EN"
 "http://www.w3.org/TR/2001/REC-SVG-20010904/DTD/svg10.dtd">
<svg version="1.0" xmlns="http://www.w3.org/2000/svg"
 width="300.000000pt" height="365.000000pt" viewBox="0 0 300.000000 365.000000"
 preserveAspectRatio="xMidYMid meet">
<metadata>
Created by potrace 1.10, written by Peter Selinger 2001-2011
</metadata>
<g transform="translate(0.000000,365.000000) scale(0.100000,-0.100000)"
fill="#000000" stroke="none">
<path d="M1483 3360 c-18 -10 -42 -39 -55 -62 -20 -38 -22 -57 -22 -163 1
-103 4 -131 28 -199 15 -43 25 -80 23 -82 -1 -2 -16 3 -32 12 -47 24 -105 34
-131 22 -60 -28 -40 -110 63 -267 42 -64 97 -147 122 -186 49 -74 75 -89 105
-60 19 20 14 64 -16 133 -11 24 -18 46 -15 48 8 9 108 -100 129 -140 17 -33
20 -53 15 -109 -5 -81 -15 -95 -49 -73 -22 14 -26 14 -46 0 -16 -11 -22 -25
-22 -53 0 -21 -3 -53 -6 -70 -5 -25 -10 -30 -28 -25 -32 8 -57 -26 -67 -88
-10 -62 -37 -128 -53 -128 -6 0 -19 15 -29 33 -10 18 -30 41 -45 49 -25 15
-30 15 -53 1 -35 -22 -61 -66 -114 -193 -26 -62 -57 -130 -71 -151 -27 -43
-75 -73 -103 -64 -38 12 -50 40 -65 154 -18 125 -40 188 -82 226 -61 57 -102
24 -180 -143 -62 -131 -77 -152 -109 -152 -26 0 -35 17 -35 69 0 32 12 49 103
151 130 145 374 381 458 444 l64 48 10 -46 c6 -25 22 -61 36 -79 15 -19 29
-52 33 -81 5 -31 16 -57 33 -73 21 -22 31 -25 79 -21 57 5 89 25 105 66 5 12
19 26 31 31 13 5 34 19 46 31 21 20 23 28 17 69 -4 25 -16 58 -27 74 -19 26
-24 28 -84 26 -59 -2 -65 0 -92 29 -24 25 -38 32 -69 32 l-38 0 0 104 c0 88
-3 107 -19 125 -11 12 -25 21 -31 21 -7 0 -55 -20 -106 -44 -97 -46 -275 -92
-293 -75 -6 5 -2 17 9 29 24 27 15 113 -16 147 -42 43 -151 22 -165 -33 -10
-41 3 -95 31 -124 15 -16 23 -30 18 -33 -4 -3 -53 -8 -108 -11 -210 -14 -303
-53 -361 -152 -79 -135 -71 -364 15 -408 75 -39 152 -7 186 76 16 39 22 140
13 203 -3 18 7 20 132 32 74 7 160 12 190 11 l55 -3 -101 -105 c-117 -121
-182 -192 -226 -247 -71 -87 -175 -256 -235 -381 -36 -74 -67 -131 -70 -129
-8 9 17 156 44 257 14 52 27 109 30 125 8 57 -25 -2 -56 -99 -56 -177 -67
-312 -46 -566 l9 -115 8 90 c19 224 80 387 242 645 68 109 176 237 354 420 94
96 169 176 168 178 -2 1 -27 -3 -57 -8 -30 -6 -139 -17 -244 -26 -104 -8 -213
-21 -242 -29 -115 -33 -185 -145 -90 -145 45 0 64 16 71 60 9 55 23 50 31 -9
14 -105 -35 -221 -95 -221 -39 0 -78 28 -90 66 -20 61 -8 210 22 275 57 122
120 151 358 164 164 9 318 30 402 56 76 22 182 71 193 89 3 5 13 10 21 10 11
0 14 -19 14 -97 l0 -98 -37 -25 c-116 -78 -416 -361 -596 -564 -74 -83 -87
-103 -83 -125 3 -14 8 -44 12 -66 9 -52 20 -65 56 -65 58 0 102 49 148 165 30
77 68 147 87 162 44 35 88 -54 114 -230 10 -73 19 -133 19 -134 0 -1 15 -11
34 -22 97 -61 170 4 262 234 44 111 80 175 99 175 17 0 34 -27 56 -90 19 -52
40 -56 77 -12 27 33 62 140 62 193 0 49 11 50 34 3 10 -22 21 -33 26 -28 19
19 42 137 35 181 -9 62 13 53 40 -15 11 -29 23 -52 26 -52 8 0 36 74 48 130
29 128 1 210 -107 312 -73 68 -171 138 -195 138 -10 0 -1 -21 29 -67 74 -113
131 -243 106 -243 -5 0 -36 44 -68 98 -31 53 -85 138 -119 187 -57 84 -96 177
-81 192 14 14 104 -20 168 -63 37 -25 101 -82 143 -125 206 -220 255 -540 115
-744 -18 -26 -41 -50 -52 -53 -10 -2 -30 -27 -44 -53 -16 -33 -31 -49 -43 -49
-13 0 -23 -11 -31 -35 -14 -44 -62 -95 -88 -95 -25 0 -66 48 -82 95 -6 19 -15
33 -20 30 -4 -3 -29 -56 -55 -118 -69 -162 -100 -222 -139 -260 -76 -76 -167
-45 -233 80 -35 65 -73 190 -73 241 0 57 -22 32 -75 -86 -58 -128 -83 -165
-126 -187 -42 -22 -83 -11 -119 33 -31 38 -68 123 -77 180 -3 17 -9 32 -13 32
-20 0 -155 -237 -196 -345 -34 -92 -64 -227 -64 -295 0 -43 6 -64 26 -95 103
-156 280 -246 483 -246 205 -1 340 61 508 232 124 127 217 263 284 414 31 72
49 93 49 58 0 -9 16 -44 35 -78 l35 -63 -16 -46 c-18 -52 -27 -52 -44 -1 -6
19 -15 35 -18 35 -4 0 -27 -42 -52 -92 -103 -211 -266 -410 -418 -512 -109
-72 -189 -100 -318 -112 -153 -14 -348 54 -452 157 -53 53 -66 83 -90 199
l-10 45 -1 -41 c-1 -50 32 -164 65 -219 87 -150 270 -252 470 -263 185 -10
344 53 492 193 89 84 165 174 221 263 19 29 35 51 36 50 1 -2 12 -21 23 -44
l21 -41 -65 -103 c-158 -253 -353 -419 -545 -465 -82 -19 -228 -19 -304 0
-162 41 -302 149 -369 286 -34 70 -86 273 -86 340 0 15 -7 46 -16 70 -41 118
-55 361 -28 520 13 78 64 249 99 334 8 18 7 19 -9 6 -44 -37 -104 -207 -132
-376 -21 -131 -13 -302 22 -441 13 -54 27 -121 30 -149 7 -72 40 -211 64 -273
59 -154 181 -270 356 -339 63 -25 81 -27 214 -28 117 0 156 4 200 19 93 32
166 73 250 141 45 36 85 63 91 60 5 -4 9 -19 9 -34 0 -60 51 -179 101 -236 50
-57 99 -41 113 37 4 24 18 47 42 68 43 37 60 35 56 -9 -3 -25 3 -38 31 -66 19
-19 45 -35 57 -35 32 0 90 62 90 95 0 58 -43 148 -92 197 -44 43 -47 49 -36
72 15 34 32 33 57 -3 63 -87 278 -229 406 -267 70 -20 233 -23 310 -5 78 19
211 89 272 144 105 96 161 201 189 357 5 25 28 131 65 300 24 109 25 333 4
451 -27 146 -86 300 -162 429 -39 65 -40 71 -12 96 51 46 63 114 30 174 -11
19 -26 49 -34 65 -8 17 -24 39 -36 49 -21 19 -22 19 -49 -1 -35 -26 -52 -59
-52 -103 l0 -34 -41 39 c-22 22 -50 53 -61 69 l-21 29 24 19 c32 25 186 103
253 128 86 33 98 52 101 162 3 101 -11 148 -44 148 -10 0 -51 -13 -91 -30
-159 -66 -273 -93 -430 -105 -41 -3 -109 -8 -150 -11 -89 -6 -172 -28 -219
-57 l-35 -21 -124 129 c-143 148 -210 233 -253 320 -35 72 -41 113 -17 128 14
10 23 4 53 -31 20 -23 40 -42 44 -42 4 0 18 10 30 21 21 19 23 29 19 93 -4 87
-37 161 -87 193 -42 28 -76 29 -118 3z m116 -49 c36 -38 51 -92 51 -177 -1
-63 -2 -67 -15 -50 -8 11 -15 30 -15 43 0 44 -84 60 -118 23 -19 -21 -19 -20
-28 42 -6 49 -9 56 -12 30 -5 -47 24 -167 59 -240 46 -96 131 -199 334 -407
169 -174 184 -192 175 -213 -5 -13 -10 -31 -10 -42 0 -10 -4 -21 -8 -24 -20
-12 -387 382 -472 507 -75 111 -121 334 -91 443 25 91 97 122 150 65z m1269
-672 l-3 -111 -80 -32 c-186 -76 -262 -124 -388 -245 l-88 -85 -36 37 -36 36
39 48 c21 26 60 70 87 97 27 26 47 50 45 51 -5 5 -322 -23 -339 -30 -9 -3 -35
16 -68 48 l-53 54 35 22 c63 38 113 49 288 61 108 7 212 21 274 35 108 26 242
74 290 104 17 11 31 20 33 20 1 1 1 -49 0 -110z m-2098 35 c6 -14 10 -42 10
-63 0 -38 0 -38 -47 -44 -59 -7 -73 7 -73 74 l0 48 43 4 c23 2 45 4 50 5 4 1
12 -10 17 -24z m1070 -279 c7 -9 9 -26 4 -47 l-7 -33 -13 35 c-21 58 -13 80
16 45z m450 -19 c0 -7 -17 -32 -37 -55 l-38 -41 -45 40 c-52 47 -47 57 30 63
30 2 63 4 73 5 9 1 17 -4 17 -12z m-961 -37 c6 -18 11 -46 11 -64 0 -31 -2
-33 -51 -39 -28 -4 -53 -5 -56 -2 -10 10 -22 82 -17 103 5 17 15 23 47 26 23
2 45 4 49 5 3 1 11 -12 17 -29z m602 -33 c-22 -26 -6 -46 35 -46 41 0 74 23
74 51 0 9 3 25 6 34 21 55 33 -97 13 -168 -26 -96 -128 -116 -167 -33 -14 28
-18 198 -6 218 4 6 17 -1 32 -15 21 -22 23 -28 13 -41z m423 -220 c136 -139
217 -237 291 -351 151 -235 214 -404 231 -623 3 -52 9 -89 13 -84 3 6 6 104 6
219 -1 199 -2 212 -28 298 -16 49 -50 132 -76 185 -50 102 -158 270 -172 270
-12 0 -12 2 11 -66 45 -130 65 -271 26 -179 -23 53 -172 472 -181 508 -33 130
261 -261 361 -481 42 -92 79 -214 95 -307 24 -149 5 -444 -35 -538 -7 -18 -16
-59 -20 -92 -36 -289 -166 -461 -416 -545 -51 -18 -88 -22 -170 -22 -196 -1
-343 71 -522 253 l-98 99 -26 -53 c-15 -28 -35 -64 -45 -79 -25 -35 -24 -50 4
-43 55 13 133 -88 145 -190 4 -40 2 -45 -22 -56 -42 -19 -78 2 -74 44 2 22 10
35 26 42 28 12 24 26 -13 44 -75 37 -210 -72 -189 -154 7 -30 -15 -35 -41 -9
-45 45 -105 210 -105 289 0 45 16 43 49 -8 l25 -37 45 51 c25 28 74 92 108
143 l61 91 -18 30 c-38 59 -128 241 -140 281 -10 34 -10 46 3 70 l15 29 23
-50 c24 -53 150 -255 159 -255 7 0 64 153 85 225 27 97 61 295 51 295 -12 0
-27 -44 -60 -171 -43 -165 -64 -230 -81 -248 -12 -12 -16 -11 -26 11 -10 22
-6 38 21 109 48 124 94 263 130 393 18 64 36 116 40 116 4 0 20 -46 35 -102
41 -154 70 -198 131 -198 46 0 82 34 136 132 64 114 112 163 184 184 31 9 64
24 74 34 37 37 40 201 5 240 -23 25 -45 25 -95 0 -54 -28 -128 -38 -135 -18
-9 24 69 178 90 178 13 0 186 -175 260 -264 78 -94 147 -201 199 -311 68 -143
87 -219 93 -377 5 -119 3 -145 -16 -205 -28 -95 -62 -151 -124 -211 -95 -89
-231 -142 -365 -142 -177 0 -314 60 -467 204 -56 52 -67 68 -62 87 3 13 17 74
31 134 29 124 51 328 41 382 -3 19 -8 33 -11 31 -2 -3 -15 -85 -29 -183 -21
-150 -56 -315 -80 -376 -7 -19 139 -163 220 -214 200 -128 428 -142 626 -39
186 98 279 260 280 489 1 165 -30 294 -110 455 -26 52 -65 121 -85 153 -66
103 -229 288 -392 446 l-158 153 -1 69 -2 69 71 -67 c39 -36 124 -120 190
-187z m-845 187 c6 -21 11 -50 11 -65 0 -27 -2 -28 -50 -28 l-50 0 0 -45 c0
-48 3 -46 -82 -60 -36 -6 -37 -5 -47 32 -6 21 -11 50 -11 65 0 25 4 27 55 33
l55 7 0 44 0 43 48 4 c26 2 50 4 54 5 4 1 12 -15 17 -35z m1239 -11 c2 -14 -2
-22 -11 -22 -8 0 -20 -7 -27 -15 -20 -25 0 -37 38 -23 39 15 43 11 49 -46 10
-86 -39 -145 -79 -96 -25 30 -23 43 5 36 28 -7 54 11 59 39 3 21 -6 23 -50 9
-42 -13 -61 81 -27 136 11 18 40 6 43 -18z m-259 -162 c22 -63 41 -119 41
-125 0 -5 -38 28 -85 75 -47 47 -85 91 -85 98 0 20 69 87 79 76 4 -5 27 -61
50 -124z m-567 -36 c45 -24 92 -11 139 38 57 59 66 36 24 -56 -57 -124 -77
-206 -74 -299 3 -66 8 -88 27 -115 l23 -32 -22 -45 c-26 -51 -43 -70 -58 -61
-10 6 -55 187 -67 266 -4 25 -16 55 -27 68 -60 66 -146 -30 -191 -213 -20 -81
-76 -265 -81 -265 -2 0 -19 23 -39 50 -32 45 -39 49 -57 39 -11 -6 -33 -30
-47 -55 -15 -24 -30 -44 -34 -44 -4 0 -19 22 -33 49 -24 49 -45 72 -45 52 0
-6 14 -53 30 -105 27 -84 31 -126 11 -126 -4 0 -18 46 -31 103 -27 120 -35
141 -45 114 -8 -18 8 -125 27 -190 14 -46 9 -58 -72 -164 -110 -146 -242 -253
-370 -302 -56 -21 -82 -25 -195 -25 -101 -1 -142 3 -185 17 -125 42 -194 90
-264 181 l-38 51 5 75 c7 91 38 210 78 299 36 80 110 211 119 211 4 0 17 -23
30 -51 44 -99 115 -155 180 -143 46 10 106 71 149 153 42 81 44 81 71 -4 31
-96 98 -187 157 -212 111 -46 205 25 284 215 17 42 38 90 46 106 l15 28 32
-31 c58 -56 121 -41 172 42 15 23 39 56 55 72 152 165 179 207 200 305 18 86
17 84 45 50 15 -17 40 -38 56 -46z m272 7 l27 -29 -30 -49 c-17 -27 -46 -84
-65 -126 l-35 -77 31 -16 c42 -22 112 -14 180 19 64 32 68 28 68 -73 0 -107
-5 -120 -46 -120 -19 0 -49 -6 -67 -13 -47 -20 -126 -112 -177 -206 -24 -46
-54 -90 -67 -98 -29 -19 -59 -9 -78 26 -14 28 -68 233 -80 304 -5 33 -8 36
-25 27 -29 -15 -45 -53 -85 -196 -59 -210 -143 -453 -165 -477 -3 -4 -15 10
-25 33 l-18 40 42 92 c46 105 108 289 151 455 41 157 87 244 123 230 8 -3 19
-35 26 -79 16 -99 50 -237 67 -270 18 -35 53 -37 81 -5 11 12 36 50 54 85 31
58 33 64 16 73 -56 33 -65 175 -18 304 38 105 70 175 80 175 4 0 20 -13 35
-29z m574 -383 c47 -99 65 -151 60 -175 -2 -12 -13 3 -31 40 -16 32 -41 79
-57 104 -27 43 -39 113 -19 113 4 0 25 -37 47 -82z m-1328 -741 c0 -22 -129
-195 -198 -265 -167 -172 -320 -240 -512 -229 -52 3 -106 10 -120 15 -14 6
-47 18 -73 27 -27 9 -46 19 -44 21 2 2 39 -3 83 -12 170 -35 349 3 507 110 92
62 224 193 296 293 41 57 61 70 61 40z m116 -212 c15 -23 15 -27 -7 -62 -30
-49 -67 -101 -102 -142 -22 -26 -32 -32 -52 -27 -36 9 -31 32 18 95 24 31 58
80 76 109 18 28 37 52 42 52 5 0 16 -11 25 -25z"/>
<path d="M2441 1404 c-48 -43 -59 -82 -35 -119 15 -23 16 -33 6 -71 -28 -105
-3 -174 64 -174 67 0 164 131 164 221 0 29 -27 59 -53 59 -13 0 -17 9 -17 38
0 44 -32 82 -68 82 -12 0 -40 -16 -61 -36z m95 -54 c-3 -19 -22 -67 -42 -106
-39 -73 -41 -104 -5 -104 28 0 76 61 90 114 14 56 36 53 26 -3 -16 -88 -106
-198 -143 -174 -44 27 -33 127 24 215 13 21 24 40 24 43 0 14 -29 2 -50 -20
-44 -47 -51 4 -6 54 48 53 92 43 82 -19z"/>
<path d="M2226 1143 c-27 -26 -27 -26 -63 -9 -35 17 -36 16 -59 -5 -33 -31
-30 -66 10 -117 19 -23 37 -57 40 -76 4 -18 16 -42 27 -52 30 -27 51 -8 69 64
11 46 24 69 53 97 32 31 37 42 32 64 -16 63 -65 79 -109 34z m72 -41 c3 -31
-12 -45 -21 -19 -7 20 -22 -2 -46 -67 -12 -33 -21 -72 -19 -88 5 -46 -16 -32
-23 15 -9 58 -33 103 -59 110 -29 7 -24 52 5 52 14 0 27 -15 44 -49 l24 -48
20 53 c11 30 24 60 30 67 18 23 42 9 45 -26z"/>
<path d="M771 1216 c-30 -31 -39 -32 -98 -5 -45 21 -46 21 -72 1 -37 -27 -82
-104 -83 -141 -1 -17 7 -40 16 -50 20 -22 128 -81 148 -81 8 0 28 13 44 30 34
35 39 36 87 11 21 -10 46 -17 58 -14 41 11 106 125 95 169 -9 34 -89 95 -133
101 -32 4 -42 0 -62 -21z m110 -42 c30 -20 55 -37 57 -39 10 -9 -65 -135 -80
-135 -5 0 -29 14 -53 30 -24 17 -47 30 -52 30 -4 0 -19 -18 -33 -40 -13 -22
-30 -40 -38 -40 -8 0 -41 17 -74 37 -52 32 -58 40 -53 61 8 32 53 102 69 108
7 3 37 -9 66 -26 l52 -31 35 41 c19 22 38 40 43 40 4 0 32 -16 61 -36z"/>
<path d="M1023 2107 c-46 -50 -59 -162 -27 -218 11 -18 34 -39 52 -46 32 -13
35 -12 68 21 25 25 34 42 34 68 -1 38 -17 64 -45 70 -15 3 -19 11 -17 33 6 73
-29 112 -65 72z m31 -44 c-4 -21 -10 -48 -15 -59 -5 -14 -2 -29 7 -43 19 -26
40 -27 47 -1 3 11 10 20 16 20 15 0 14 -34 -3 -75 -19 -46 -49 -47 -76 -2 -22
36 -25 73 -9 132 15 61 18 65 29 65 7 0 9 -13 4 -37z"/>
</g>
</svg>
